<svg xmlns="http://www.w3.org/2000/svg" xmlns:xlink="http://www.w3.org/1999/xlink" width="756.36981" height="756.36981" viewBox="0 0 756 756">
  <defs>
    <path id="a" d="m291.42858637 473.59491996 161.62440787 161.62440787-161.62440787 161.62440786L129.8041785 635.21932783"/>
    <path id="b" d="M329.476091 552.06446c0 64.69622-52.44665 117.14286-117.14286 117.14286-64.69622 0-117.14286-52.44664-117.14286-117.14286 0-64.69621 52.44664-117.14286 117.14286-117.14286 64.69621 0 117.14286 52.44665 117.14286 117.14286z"/>
    <path id="c" d="M489.166901 550.56431c0 64.69622-52.44665 117.14286-117.14286 117.14286-64.69622 0-117.14286-52.44664-117.14286-117.14286 0-64.69621 52.44664-117.14286 117.14286-117.14286 64.69621 0 117.14286 52.44665 117.14286 117.14286z"/>
  </defs>
  <rect width="100%" height="100%" fill="#001E2B" rx="50%" ry="50%"/>
  <g transform="translate(170 -20) scale(0.70)">
    <g fill="#00ED64" transform="translate(4.2180348 -244.97944)">
      <use xlink:href="#a"/>
      <use xlink:href="#b"/>
      <use xlink:href="#c"/>
    </g>
    <g fill="#00ED64" transform="matrix(1 0 0 -1 4.2180347 1378.2333)">
      <use xlink:href="#a"/>
      <use xlink:href="#b"/>
      <use xlink:href="#c"/>
    </g>
    <g fill="#00ED64" transform="rotate(90 416.777355 691.225645)">
      <use xlink:href="#a"/>
      <use xlink:href="#b"/>
      <use xlink:href="#c"/>
    </g>
    <g fill="#00ED64" transform="matrix(0 1 1 0 -515.2097 274.44829)">
      <use xlink:href="#a"/>
      <use xlink:href="#b"/>
      <use xlink:href="#c"/>
    </g>
  </g>
</svg>
